<?xml version="1.0" encoding="UTF-8"?>
<!-- Created with Inkscape (http://www.inkscape.org/) -->
<svg id="svg15293" width="470.14441" height="156.4016" version="1.1" viewBox="0 0 124.39238 41.381256" xmlns="http://www.w3.org/2000/svg" xmlns:cc="http://creativecommons.org/ns#" xmlns:dc="http://purl.org/dc/elements/1.1/" xmlns:rdf="http://www.w3.org/1999/02/22-rdf-syntax-ns#">
 <metadata id="metadata15290">
  <rdf:RDF>
   <cc:Work rdf:about="">
    <dc:format>image/svg+xml</dc:format>
    <dc:type rdf:resource="http://purl.org/dc/dcmitype/StillImage"/>
   </cc:Work>
  </rdf:RDF>
 </metadata>
 <g id="layer1" transform="translate(49.222971,-127.64271)">
  <g id="g15270" transform="translate(-114.73622,-172.52069)">
   <g fill="#241239">
    <path id="Path" class="a" d="m104.03454 332.9429v-9.31357c0-1.15175-0.32626-2.07837-0.97876-2.77985-0.67051-0.70898-1.61527-1.09276-2.59026-1.05222-0.992059-0.0428-1.955201 0.34001-2.647136 1.05222-0.663562 0.70148-0.995342 1.6281-0.995342 2.77985v9.31357l-6.498166 0.0521v-26.341h6.498166v9.17374c1.502492-1.3524 3.405488-2.0286 5.708998-2.0286 2.40304 0 4.33685 0.76388 5.80143 2.29166 1.46457 1.52777 2.19686 3.42998 2.19686 5.70663v11.15495z"/>
    <path id="Shape" class="a" d="m118.79404 311.41743c-1.06401 1.06179-2.6624 1.37905-4.05128 0.80411s-2.29537-1.92912-2.29758-3.43229c-0.0158-0.98913 0.37889-1.94061 1.09014-2.62818 0.69702-0.69797 1.64295-1.09017 2.62936-1.09017s1.93234 0.3922 2.62936 1.09017c0.70991 0.6883 1.1036 1.63951 1.08777 2.62818 0.0158 0.98867-0.37786 1.93988-1.08777 2.62818zm0.59958 21.52547h-6.49816v-18.58921h6.49816z"/>
    <path id="path15204" class="a" d="m77.539464 306.08997c1.865798-0.0313 3.722404 0.26797 5.483863 0.88396 1.602028 0.58773 2.841467 1.2821 3.718316 2.08311 0.571137 0.51426 1.421918 1.35319 1.421918 1.35319l-4.460083 4.55725s-0.893438-0.63749-1.317644-0.94794c-1.72842-1.27815-3.356516-1.91643-4.884288-1.91485-0.778865-0.0285-1.551904 0.14452-2.244261 0.50241-0.601945 0.33652-0.902918 0.79311-0.902918 1.36978 0 0.90055 0.676201 1.51434 2.028603 1.84138l4.798974 1.08777c5.008311 1.12805 7.512466 3.77045 7.512466 7.92719 0 2.30351-0.947945 4.325-2.843836 6.06448-1.89589 1.73948-4.588055 2.60843-8.076494 2.60686-2.352484 0-4.418215-0.33811-6.197192-1.01431-1.778978-0.6762-3.208795-1.53962-4.289453-2.59026l-1.509603-1.51197 5.135494-4.50274s0.978753 0.83419 1.369781 1.23707c1.486499 1.50447 3.518251 2.34384 5.633165 2.3272 1.049059 0 1.869032-0.19986 2.459918-0.59957 0.590886-0.39972 0.884749-0.87369 0.881589-1.42192 0.0218-0.61004-0.287128-1.1844-0.808123-1.5025-0.537169-0.34284-1.39427-0.64223-2.571302-0.89817l-4.130671-0.90055c-2.004905-0.42342-3.626682-1.29237-4.86533-2.60685-1.238649-1.31449-1.857973-2.97339-1.857973-4.97671 0-2.4615 0.989023-4.48221 2.967069-6.06211 1.978046-1.57991 4.494051-2.37698 7.548015-2.3912z"/>
    <path id="path15206" class="a" d="m157.65506 330.32657-2.66372-4.2231c-0.34912 0.27196-0.71306 0.52434-1.09014 0.75599-0.44016 0.31382-0.96037 0.49626-1.50012 0.52611-0.97797 0-1.46695-0.57588-1.46695-1.72764v-0.38154h0.0166v-5.55259h5.92466v-5.37011h-5.92466v-5.45069h-6.51238v18.36407c0 2.05388 0.65092 3.5935 1.95276 4.61886 1.30185 1.02537 2.89202 1.53884 4.77054 1.54062 1.1583 7e-3 2.30879-0.19011 3.39838-0.58319 0.97391-0.32418 1.84688-0.89582 2.53339-1.6589 0.23555-0.25123 0.4256-0.54152 0.56165-0.85789z"/>
    <path id="path15208" class="a" d="m139.78629 316.47471c-1.66363-1.74176-3.97598-2.71425-6.38441-2.68505-2.13287 0-3.79731 0.63907-4.9933 1.91722v-1.35319h-6.46499v26.92638h6.46025v-17.61282c-0.0175-1.01126 0.37487-1.98658 1.08777-2.70401 0.69943-0.72136 1.66132-1.12851 2.66609-1.12851 1.00478 0 1.96667 0.40715 2.6661 1.12851 1.45363 1.50963 1.45363 3.89839 0 5.40802-0.68883 0.73637-1.65797 1.14557-2.6661 1.12569-0.45154 2e-3 -0.90276-0.0246-1.35082-0.0806v5.81091c0.81123 0.19717 1.64411 0.29113 2.47888 0.27964 2.45049 0.0334 4.80233-0.96405 6.48158-2.74904 1.79161-1.82795 2.68663-4.21915 2.68505-7.17358-2e-3 -2.95443-0.89028-5.32429-2.6661-7.10959z"/>
   </g>
   <path id="path15210" class="b" d="m176.5879 334.48807c-3.56051 4e-3 -7.08998-0.66213-10.4037-1.96464-1.70103-0.68098-2.76653-2.38368-2.63529-4.21125l0.93136-15.19319 4.6236 0.28201-0.91476 14.93014c5.41467 2.04363 11.39045 2.03267 16.79759-0.0308-0.11376-1.67549-0.71096-10.47716-1.07592-15.61503-4.6236 2.33195-8.53151 2.51443-11.40615 0.49293-1.81109-1.28118-2.87481-3.37229-2.84384-5.5905-0.0197-2.32021 1.08838-4.50553 2.97181-5.86068 1.65738-1.20678 3.77181-1.59883 5.75166-1.06643 2.19212 0.59009 4.11171 2.27507 5.13786 4.50274l-4.20887 1.93381c-0.45028-0.97876-1.26788-1.73237-2.13288-1.96699-0.65189-0.17682-1.349-0.0344-1.8793 0.38392-0.65061 0.48682-1.02792 1.25642-1.0143 2.06889-0.0232 0.70967 0.30481 1.38518 0.87684 1.80583 1.76081 1.23944 5.31561 0.29624 9.5079-2.52153 0.73053-0.49112 1.67622-0.52601 2.44095-0.0901 1.07592 0.61617 1.13754 1.48828 1.22048 2.69691l1.29395 18.7788c0.15166 1.84677-0.92776 3.57386-2.65425 4.24679-3.30459 1.31388-6.82853 1.98834-10.38474 1.98834z" fill="#23cc6b"/>
  </g>
 </g>
</svg>
