<?xml version="1.0" encoding="UTF-8"?>
<svg width="469px" height="155px" viewBox="0 0 469 155" version="1.1" xmlns="http://www.w3.org/2000/svg" xmlns:xlink="http://www.w3.org/1999/xlink">
    <!-- Generator: Sketch 61.2 (89653) - https://sketch.com -->
    <title>ShiptLogo-horizontal_colorGreenBag</title>
    <desc>Created with Sketch.</desc>
    <g id="Email-Guidelines" stroke="none" stroke-width="1" fill="none" fill-rule="evenodd">
        <g id="Logos" transform="translate(-741.000000, -446.000000)" fill-rule="nonzero">
            <g id="ShiptLogo-horizontal_colorGreenBag" transform="translate(741.000000, 446.000000)">
                <path d="M144.592268,122.907459 L144.592268,87.7065905 C144.592268,83.353506 143.359193,79.8513331 140.893042,77.2000718 C138.358812,74.5204355 134.788089,73.0699311 131.103081,73.2231798 C127.353556,73.0612829 123.71334,74.5082444 121.098152,77.2000718 C118.590202,79.8513331 117.336227,83.353506 117.336227,87.7065905 L117.336227,122.907459 L92.776232,123.104512 L92.776232,23.5478581 L117.336227,23.5478581 L117.336227,58.2202653 C123.014942,53.1088246 130.207384,50.5531042 138.913553,50.5531042 C147.995914,50.5531042 155.304797,53.4402322 160.840201,59.2144883 C166.375604,64.9887444 169.143306,72.1782007 169.143306,80.7828574 L169.143306,122.943286 L144.592268,122.907459 Z" id="Path" fill="#FFFFFF"></path>
                <path d="M200.376239,41.5513555 C196.354781,45.5644517 190.313596,46.763529 185.064298,44.5905274 C179.815,42.4175258 176.388901,37.2993671 176.380533,31.6180825 C176.320904,27.8796327 177.81254,24.2834943 180.500736,21.6848096 C183.135144,19.0468033 186.710328,17.5644839 190.438488,17.5644839 C194.166648,17.5644839 197.741832,19.0468033 200.376239,21.6848096 C203.059331,24.2862602 204.547302,27.8813795 204.487486,31.6180825 C204.547302,35.3547856 203.059331,38.9499049 200.376239,41.5513555 Z M202.642351,122.907459 L178.082356,122.907459 L178.082356,52.6490338 L202.642351,52.6490338 L202.642351,122.907459 Z" id="Shape" fill="#FFFFFF"></path>
                <path d="M44.4534118,21.4161007 C51.5052476,21.2977991 58.5223399,22.4289034 65.1798263,24.7570482 C71.2347339,26.9783753 75.919226,29.6027657 79.2333026,32.6302195 C81.3919309,34.5738806 84.6074809,37.7446459 84.6074809,37.7446459 L67.7504749,54.9688874 C67.7504749,54.9688874 64.3736995,52.5594641 62.770403,51.3861019 C56.2377906,46.5553127 50.0843564,44.1429037 44.3101004,44.148875 C41.3663585,44.0410178 38.4446383,44.6950882 35.8278556,46.0477514 C33.5527867,47.3196403 32.4152523,49.0453486 32.4152523,51.2248765 C32.4152523,54.6285228 34.9709727,56.9483764 40.0824134,58.1844375 L58.2202653,62.2956839 C77.1493157,66.5591987 86.6138409,76.5462134 86.6138409,92.2567281 C86.6138409,100.962897 83.0310553,108.603187 75.8654842,115.177599 C68.6999131,121.75201 58.5248021,125.03623 45.3401512,125.030267 C36.4488717,125.030267 28.6413849,123.752399 21.9176906,121.196678 C15.1939964,118.640958 9.78996154,115.377638 5.705586,111.406717 L0,105.692174 L19.4097408,88.6739426 C19.4097408,88.6739426 23.1089668,91.8267938 24.5868659,93.3494777 C30.2051311,99.0356972 37.8841943,102.208116 45.8775691,102.145216 C49.8425184,102.145216 52.9416279,101.389846 55.1748976,99.8791044 C57.4081673,98.3683631 58.5188308,96.5769704 58.5068882,94.5049261 C58.5892657,92.199279 57.4216767,90.0284536 55.4525635,88.8262109 C53.4223183,87.5304368 50.182883,86.3988737 45.7342576,85.4315216 L30.1222696,82.0278753 C22.5446781,80.4275645 16.4151292,77.1433444 11.7336227,72.1752151 C7.05211624,67.2070858 4.71136301,60.937211 4.71136301,53.3655909 C4.71136301,44.0622911 8.44940261,36.4249865 15.9254818,30.4536772 C23.401561,24.482368 32.910871,21.4698425 44.4534118,21.4161007 Z" id="Path" fill="#FFFFFF"></path>
                <path d="M347.252533,113.01897 L337.184906,97.0576608 C335.865389,98.0855305 334.489875,99.0394195 333.064702,99.9149322 C331.401085,101.101031 329.434975,101.790568 327.394944,101.903378 C323.698704,101.903378 321.850584,99.726836 321.850584,95.3737515 L321.850584,93.9316804 L321.913282,93.9316804 L321.913282,72.945514 L344.305692,72.945514 L344.305692,52.6490338 L321.913282,52.6490338 L321.913282,32.0480168 L297.299546,32.0480168 L297.299546,101.45553 C297.299546,109.218232 299.759725,115.037273 304.680084,118.912653 C309.600443,122.788032 315.610565,124.728708 322.710452,124.735449 C327.088275,124.762871 331.436613,124.016922 335.554738,122.531266 C339.235642,121.306024 342.53508,119.145494 345.129733,116.261391 C346.020001,115.311859 346.738309,114.214697 347.252533,113.01897 Z" id="Path" fill="#FFFFFF"></path>
                <path d="M279.717025,60.6655165 C273.429294,54.0824874 264.689693,50.4069236 255.586965,50.5172764 C247.525697,50.5172764 241.234923,52.932671 236.714642,57.7634602 L236.714642,52.6490338 L212.280044,52.6490338 L212.280044,154.418058 L236.696728,154.418058 L236.696728,87.8499019 C236.630636,84.0278293 238.113537,80.3415764 240.807974,77.6300061 C243.451507,74.9036127 247.086996,73.3647794 250.884559,73.3647794 C254.682122,73.3647794 258.317611,74.9036127 260.961143,77.6300061 C266.455156,83.335718 266.455156,92.3640858 260.961143,98.0697977 C258.357704,100.852922 254.694812,102.399477 250.884559,102.324356 C249.177946,102.333168 247.472553,102.231442 245.779089,102.019819 L245.779089,123.982294 C248.845153,124.727519 251.993042,125.082635 255.148073,125.039216 C264.40979,125.165597 273.298626,121.39556 279.64537,114.649138 C286.416834,107.740333 289.799581,98.7027565 289.793618,87.5364081 C289.787639,76.3700598 286.428777,67.4130959 279.717025,60.6655165 Z" id="Path" fill="#FFFFFF"></path>
                <path d="M418.809718,128.747481 C405.352654,128.764017 392.012942,126.244969 379.488646,121.322076 C373.059563,118.748299 369.032455,112.312893 369.528502,105.405551 L373.048589,47.9824556 L390.523626,49.0483343 L387.066238,105.477207 C407.531148,113.201159 430.116758,113.159735 450.553198,105.360766 C450.123264,99.0281928 447.866109,65.7620289 446.486736,46.3433312 C429.0117,55.1569837 414.241666,55.8466699 403.376869,48.2063797 C396.531831,43.3641215 392.511445,35.4607142 392.628512,27.0769019 C392.553885,18.3076261 396.742069,10.0481532 403.860545,4.92633014 C410.124662,0.365248248 418.116202,-1.11649598 425.599096,0.895696389 C433.884288,3.1259804 441.139429,9.49438173 445.017794,17.9139278 L429.110226,25.2228103 C427.408403,21.5235842 424.318251,18.6752697 421.048959,17.7885303 C418.585139,17.1202529 415.950395,17.6584983 413.946086,19.2395584 C411.487102,21.0795306 410.061065,23.9882462 410.112506,27.0589879 C410.024861,29.7412 411.264572,32.2943345 413.426582,33.8841944 C420.081607,38.5686865 433.517052,35.0038149 449.361922,24.3539848 C452.12299,22.4977838 455.697256,22.3659177 458.587594,24.0136202 C462.654056,26.3424308 462.886937,29.6385935 463.200431,34.2066451 L468.090933,105.181627 C468.664153,112.161584 464.584438,118.689127 458.059134,121.232506 C445.569341,126.198356 432.250498,128.747481 418.809718,128.747481 L418.809718,128.747481 Z" id="Path" fill="#23CC6B"></path>
            </g>
        </g>
    </g>
</svg>